# xmcd
#
# Track frame offsets:
#	150
#	4688
#	22767
#	41968
#	53295
#	80131
#	99745
#	121749
#	140492
#	164229
#	196579
#	235538
#	265616
#
# Disc length: 3793 seconds
#
# Revision: 4
# Processed by: cddbd v1.5.2PL0 Copyright (c) Steve Scherf et al.
# Submitted via: EasyCDDAExtractor 11.0.2.1
#
DISCID=9c0ecf0d
DTITLE=예수전도단 캠퍼스워십 - 크리스마스
DYEAR=2006
DGENRE=Christian Worship
TTITLE0=intro
TTITLE1=천사들의 노래가
TTITLE2=그 맑고 환한 밤중에
TTITLE3=오 베들레헴 작은 골
TTITLE4=예수
TTITLE5=영광나라 천사들아 (Angels From Realms Of Glory)
TTITLE6=왕이 나셨다
TTITLE7=임마누엘 (Emmanuel)
TTITLE8=영광나라 천사들아 (Angels From Realms Of Glory)
TTITLE9=주께 경배드리세 (Come Now Is The Time To Worship)
TTITLE10=겸손의 왕 (Humble King)
TTITLE11=왕이 나셨다
TTITLE12=참 반가운 신도여
EXTD=YEAR: 2007
EXTT0=
EXTT1=
EXTT2=
EXTT3=
EXTT4=
EXTT5=
EXTT6=
EXTT7=
EXTT8=
EXTT9=
EXTT10=
EXTT11=
EXTT12=
PLAYORDER=
